# xmcd
#
# Track frame offsets: 
#        151
#        10629
#        27121
#        46824
#        62696
#        85191
#        102912
#        126201
#        146081
#        166621
#        192645
#        212994
#        229257
#
# Disc length: 3322 seconds
#
# Revision: 1
# Processed by: cddbd v1.5.2PL0 Copyright (c) Steve Scherf et al.
# Submitted via: ExactAudioCopy v0.99pb5
#
DISCID=ab0cf80d
DTITLE=Cora Mae Bryant - Born in Newton County
DYEAR=2003
DGENRE=Blues
TTITLE0=Born in Newton County
TTITLE1=Liquor Still
TTITLE2=Empty Room Blues
TTITLE3=Cold rainy day
TTITLE4=You Was Gone
TTITLE5=Key to the Highway
TTITLE6=Motherless Child
TTITLE7=East St. Louis Blues
TTITLE8=Layaway
TTITLE9=You'll Need Somebody on Your Bond
TTITLE10=Cross the River of Jordan
TTITLE11=Call on Jesus' Name
TTITLE12=Live So God can Use You
EXTD=YEAR: 2003
EXTT0=
EXTT1=
EXTT2=
EXTT3=
EXTT4=
EXTT5=
EXTT6=
EXTT7=
EXTT8=
EXTT9=
EXTT10=
EXTT11=
EXTT12=
PLAYORDER=
